<svg width="32" height="32" viewBox="95 55 380 315" fill="none" xmlns="http://www.w3.org/2000/svg">
  <!-- Background rounded rect -->
  <rect x="95" y="55" width="380" height="315" rx="72" fill="#080B14"/>

  <!-- Accent arrow -->
  <path
    d="M438.363 76.6589C443.112 70.998 452.282 73.1552 454.009 80.3395L467.984 138.474C469.551 144.991 463.697 150.873 457.172 149.338L404.771 137.011C398.245 135.476 395.628 127.601 399.936 122.466L438.363 76.6589Z"
    fill="#EAE7E7"
    fill-opacity="0.8"
  />

  <!-- W stroke -->
  <path
    d="M132 163L178.89 326.182C182.772 339.692 195.13 349 209.188 349C224.866 349 238.162 337.478 240.392 321.959L260.16 184.364C261.922 172.103 272.426 163 284.813 163C297.104 163 307.558 171.968 309.428 184.116L330.656 322.021C333.046 337.543 346.402 349 362.106 349C377.303 349 390.378 338.255 393.324 323.346L425 163"
    stroke="#EAE7E7"
    stroke-opacity="0.8"
    stroke-width="32"
    stroke-linecap="round"
    fill="none"
  />
</svg>
